<svg width="311" height="141" viewBox="0 0 311 141" fill="none" xmlns="http://www.w3.org/2000/svg">
<path d="M21.5801 120.16H289.32" stroke="#B7DE36" stroke-width="1.37" stroke-miterlimit="10"/>
<path d="M7.77 96.67L10.84 103.34H4.63L7.77 96.67ZM8.17 92.8101L0 110.06H1.42L4.08 104.43H11.31L13.89 110.06H16.78L8.84 92.8101H8.17Z" fill="white"/>
<path d="M21.5303 93.2H24.4303L30.9903 106.13H31.1303L37.5603 93.2H40.4203V110.06H37.5603V96.24H37.4803L30.5603 110.06H29.9703L22.9803 96.34H22.7903V110.06H21.5303V93.2Z" fill="white"/>
<path d="M47.8901 93.2H50.7301V108.97H59.2201V110.06H47.8901V93.2Z" fill="white"/>
<path d="M70.8999 92.8101L78.8399 110.06H75.9999L73.4299 104.43H66.1999L63.5299 110.06H62.1099L70.2399 92.8101H70.8999ZM66.6499 103.34H72.8599L69.7999 96.67L66.6499 103.34Z" fill="white"/>
<path d="M91.7603 93.2H94.6702L101.23 106.13H101.37L107.8 93.2H110.65V110.06H107.8V96.24H107.71L100.79 110.06H100.21L93.2203 96.34H93.0303V110.06H91.7603V93.2Z" fill="white"/>
<path d="M124.2 92.8101L132.14 110.06H129.25L126.68 104.43H119.45L116.78 110.06H115.36L123.49 92.8101H124.2ZM120 103.34H126.21L123.15 96.67L120 103.34Z" fill="white"/>
<path d="M176.76 92.8101L184.7 110.06H181.81L179.24 104.43H172L169.33 110.06H167.91L176.04 92.8101H176.76ZM172.51 103.34H178.72L175.66 96.67L172.51 103.34Z" fill="white"/>
<path d="M223.76 93.2V94.28H214.86V100.32H220.82V101.41H214.86V108.97H223.76V110.06H212.03V93.2H223.76Z" fill="white"/>
<path d="M204.41 94.5201C204.04 95.0701 203.73 95.4401 203.47 95.8501C202.765 95.1621 201.909 94.6484 200.97 94.3501C199.93 93.9749 198.818 93.8429 197.719 93.9643C196.62 94.0856 195.563 94.457 194.63 95.0501C193.158 96.1819 192.145 97.809 191.78 99.6301C191.309 101.738 191.574 103.943 192.53 105.88C194.26 109.12 198.82 110.09 201.69 108.66C201.783 108.614 201.867 108.554 201.94 108.48C201.94 106.84 201.94 103.08 201.94 101.48C201.94 101.48 201.94 101.56 201.94 101.48H198V100.39H204.81V101.74C204.81 103.93 204.81 106.12 204.81 108.31V108.69C204.685 108.805 204.548 108.906 204.4 108.99C202.985 109.765 201.426 110.241 199.82 110.39C198.018 110.613 196.19 110.498 194.43 110.05C193.226 109.742 192.11 109.158 191.171 108.344C190.232 107.53 189.496 106.508 189.02 105.36C188.449 104.029 188.211 102.578 188.326 101.134C188.441 99.6905 188.907 98.2963 189.681 97.0724C190.456 95.8485 191.518 94.8317 192.774 94.11C194.03 93.3883 195.442 92.9833 196.89 92.9301C198.921 92.6524 200.99 92.9109 202.89 93.6801C203.416 93.9144 203.919 94.1991 204.39 94.5301" fill="white"/>
<path d="M147 94.1001C146.057 93.523 145.005 93.1453 143.91 92.9901C142.27 92.7051 140.583 92.8852 139.04 93.5101C138.347 93.7835 137.74 94.2363 137.28 94.8219C136.82 95.4076 136.523 96.1051 136.422 96.8429C136.32 97.5807 136.416 98.3323 136.701 99.0206C136.985 99.709 137.447 100.309 138.04 100.76C138.74 101.278 139.475 101.745 140.24 102.16C141.24 102.74 142.59 103.41 143.59 104.03C144.019 104.269 144.381 104.613 144.64 105.03C144.814 105.436 144.898 105.874 144.887 106.316C144.876 106.757 144.769 107.19 144.574 107.587C144.379 107.983 144.101 108.332 143.759 108.61C143.416 108.889 143.018 109.09 142.59 109.2C141.093 109.467 139.55 109.22 138.21 108.5C137.729 108.247 137.317 107.879 137.01 107.43L136.01 108.66C136.173 108.814 136.351 108.951 136.54 109.07C137.653 109.784 138.912 110.238 140.223 110.401C141.535 110.564 142.867 110.43 144.12 110.01C146.78 109.15 148.24 106.93 147.55 104.27C147.037 103.006 146.045 101.996 144.79 101.46C143.68 100.82 142.52 100.27 141.4 99.6501C140.886 99.3688 140.403 99.0336 139.96 98.6501C139.537 98.3163 139.237 97.8507 139.109 97.3271C138.98 96.8036 139.03 96.252 139.25 95.7601C139.439 95.353 139.717 94.9934 140.063 94.7079C140.409 94.4223 140.815 94.218 141.25 94.1101C142.127 93.8503 143.059 93.839 143.941 94.0773C144.824 94.3157 145.623 94.7944 146.25 95.4601L147 94.1001Z" fill="white"/>
<path d="M163.44 94.1001C162.493 93.523 161.439 93.1453 160.34 92.9901C158.704 92.7049 157.02 92.885 155.48 93.5101C154.788 93.7836 154.18 94.2363 153.72 94.822C153.26 95.4076 152.964 96.1051 152.862 96.8429C152.76 97.5807 152.856 98.3323 153.141 99.0207C153.425 99.709 153.888 100.309 154.48 100.76C155.18 101.278 155.915 101.745 156.68 102.16C157.68 102.74 159.03 103.41 160.04 104.03C160.555 104.312 160.967 104.75 161.217 105.281C161.467 105.812 161.541 106.409 161.43 106.985C161.319 107.561 161.028 108.087 160.598 108.487C160.169 108.887 159.623 109.14 159.04 109.21C157.543 109.478 156 109.231 154.66 108.51C154.179 108.257 153.767 107.889 153.46 107.44L152.46 108.67C152.621 108.826 152.799 108.964 152.99 109.08C154.103 109.794 155.362 110.248 156.674 110.411C157.986 110.574 159.317 110.44 160.57 110.02C163.22 109.16 164.68 106.94 163.99 104.28C163.481 103.017 162.492 102.007 161.24 101.47C160.13 100.83 158.97 100.28 157.85 99.6601C157.335 99.3812 156.852 99.0458 156.41 98.6601C155.988 98.3255 155.689 97.8605 155.558 97.3377C155.428 96.8149 155.475 96.2637 155.69 95.7701C155.882 95.365 156.161 95.0072 156.506 94.722C156.852 94.4368 157.256 94.2313 157.69 94.1201C158.567 93.8603 159.499 93.849 160.382 94.0873C161.264 94.3257 162.064 94.8044 162.69 95.4701L163.44 94.1001Z" fill="white"/>
<path d="M275.59 94.1801C274.649 93.6008 273.596 93.226 272.5 93.0801C270.86 92.7896 269.172 92.9699 267.63 93.6001C266.94 93.8744 266.334 94.3271 265.876 94.9119C265.417 95.4966 265.122 96.1926 265.02 96.9287C264.919 97.6648 265.014 98.4147 265.297 99.1018C265.58 99.789 266.04 100.389 266.63 100.84C267.33 101.358 268.065 101.825 268.83 102.24C269.83 102.82 271.18 103.49 272.18 104.11C272.608 104.351 272.969 104.694 273.23 105.11C273.404 105.516 273.488 105.954 273.477 106.396C273.466 106.837 273.359 107.27 273.164 107.667C272.969 108.063 272.691 108.412 272.349 108.691C272.006 108.969 271.608 109.17 271.18 109.28C269.682 109.538 268.14 109.288 266.8 108.57C266.321 108.317 265.91 107.954 265.6 107.51L264.6 108.74C264.764 108.894 264.945 109.028 265.14 109.14C266.253 109.853 267.511 110.308 268.823 110.472C270.134 110.636 271.466 110.506 272.72 110.09C275.37 109.22 276.83 107.01 276.14 104.34C275.623 103.078 274.632 102.07 273.38 101.53C272.27 100.9 271.12 100.34 269.99 99.7301C269.478 99.4452 268.996 99.1102 268.55 98.7301C268.129 98.3969 267.831 97.933 267.702 97.4116C267.574 96.8902 267.622 96.3409 267.84 95.8501C268.032 95.4439 268.31 95.0848 268.656 94.798C269.001 94.5112 269.406 94.3037 269.84 94.1901C270.718 93.9384 271.649 93.9321 272.53 94.1719C273.411 94.4116 274.21 94.8883 274.84 95.5501L275.59 94.1801Z" fill="white"/>
<path d="M292.77 96.26C292.437 95.6602 291.976 95.1412 291.42 94.7401C290.814 94.3141 290.137 93.9992 289.42 93.8101C288.612 93.5885 287.778 93.4808 286.94 93.4901H281.58V110.38H284.43V102.57C284.59 102.57 284.79 102.64 285.05 102.68L285.88 102.76C286.167 102.76 286.477 102.78 286.81 102.82H287.74C288.416 102.819 289.088 102.728 289.74 102.55C290.379 102.379 290.982 102.094 291.52 101.71C292.04 101.34 292.471 100.858 292.78 100.3C293.112 99.6866 293.277 98.9972 293.26 98.3C293.276 97.5827 293.108 96.8733 292.77 96.2401M290 99.85C289.862 100.27 289.629 100.653 289.32 100.97C288.996 101.303 288.603 101.562 288.17 101.73C287.659 101.92 287.116 102.012 286.57 102C286.194 101.999 285.819 101.962 285.45 101.89C285.111 101.824 284.777 101.733 284.45 101.62V94.7401H286.45C286.955 94.7385 287.456 94.8266 287.93 95.0001C288.379 95.1714 288.791 95.4297 289.14 95.76C289.492 96.0906 289.768 96.4931 289.95 96.9401C290.156 97.427 290.258 97.9515 290.25 98.48C290.252 98.9465 290.174 99.4098 290.02 99.85" fill="white"/>
<path d="M301.82 97L304.88 103.67H298.67L301.82 97ZM302.21 93.14L294.08 110.39H295.5L298.17 104.76H305.4L307.98 110.39H310.86L302.92 93.14H302.21Z" fill="white"/>
<path d="M251.07 107.74C250.903 108.19 250.594 108.572 250.19 108.83C249.779 109.04 249.321 109.143 248.86 109.13C248.39 109.104 247.938 108.94 247.56 108.66C247.012 108.29 246.505 107.86 246.05 107.38C246.33 107.02 246.59 106.68 246.81 106.38C247.027 106.059 247.224 105.725 247.4 105.38C247.571 105.027 247.718 104.663 247.84 104.29C247.97 103.857 248.07 103.416 248.14 102.97L247.62 102.83C247.469 103.429 247.244 104.007 246.95 104.55C246.519 105.319 246.002 106.037 245.41 106.69C244.82 106.04 244.28 105.38 243.77 104.69C243.284 104.059 242.849 103.391 242.47 102.69L243.8 102.04C244.214 101.838 244.606 101.593 244.97 101.31C245.303 101.06 245.587 100.752 245.81 100.4C246.031 100.047 246.142 99.6364 246.13 99.2201C246.143 98.8202 246.065 98.4227 245.902 98.0573C245.739 97.6918 245.496 97.368 245.19 97.1101C244.894 96.8638 244.555 96.674 244.19 96.5501C243.789 96.4247 243.371 96.3606 242.95 96.3601C242.411 96.3482 241.876 96.4505 241.38 96.6601C240.955 96.8453 240.573 97.1179 240.26 97.4601C239.961 97.7905 239.733 98.1784 239.59 98.6C239.442 99.0242 239.367 99.4707 239.37 99.92C239.385 100.361 239.469 100.796 239.62 101.21C239.814 101.784 240.045 102.345 240.31 102.89C239.78 103.15 239.31 103.42 238.78 103.72C238.3 104.001 237.853 104.337 237.45 104.72C237.065 105.1 236.747 105.543 236.51 106.03C236.263 106.552 236.14 107.123 236.15 107.7C236.146 108.112 236.214 108.521 236.35 108.91C236.48 109.273 236.7 109.596 236.99 109.85C237.311 110.134 237.69 110.345 238.1 110.47C238.64 110.621 239.199 110.692 239.76 110.68C240.644 110.689 241.521 110.522 242.34 110.19C243.132 109.866 243.875 109.436 244.55 108.91C245.075 109.414 245.663 109.848 246.3 110.2C246.834 110.503 247.436 110.668 248.05 110.68C248.467 110.684 248.882 110.623 249.28 110.5C249.645 110.385 249.984 110.202 250.28 109.96C250.584 109.721 250.838 109.426 251.03 109.09C251.245 108.722 251.393 108.319 251.47 107.9L251.07 107.74ZM241.43 98.4101C241.511 98.1557 241.633 97.916 241.79 97.7C241.941 97.4949 242.132 97.3216 242.35 97.1901C242.559 97.0581 242.802 96.9887 243.05 96.9901C243.272 96.9886 243.492 97.04 243.69 97.1401C243.888 97.2423 244.062 97.3855 244.2 97.5601C244.359 97.7564 244.481 97.98 244.56 98.2201C244.644 98.509 244.685 98.809 244.68 99.1101C244.685 99.4269 244.62 99.741 244.49 100.03C244.356 100.319 244.17 100.58 243.94 100.8C243.693 101.041 243.422 101.256 243.13 101.44C242.808 101.652 242.474 101.845 242.13 102.02C241.875 101.548 241.668 101.053 241.51 100.54C241.375 100.099 241.301 99.6413 241.29 99.1801C241.293 98.9173 241.34 98.657 241.43 98.4101ZM242.38 109.09C241.898 109.328 241.367 109.451 240.83 109.45C240.456 109.456 240.085 109.384 239.74 109.24C239.431 109.116 239.155 108.925 238.93 108.68C238.707 108.436 238.534 108.15 238.42 107.84C238.304 107.519 238.243 107.181 238.24 106.84C238.232 106.498 238.293 106.158 238.42 105.84C238.546 105.531 238.714 105.242 238.92 104.98C239.145 104.697 239.4 104.438 239.68 104.21C239.99 103.954 240.325 103.73 240.68 103.54C240.9 103.94 241.13 104.34 241.37 104.75C241.61 105.16 241.86 105.56 242.12 105.96C242.38 106.36 242.65 106.74 242.94 107.12C243.23 107.5 243.52 107.86 243.83 108.2C243.395 108.549 242.922 108.847 242.42 109.09" fill="white"/>
<g clip-path="url(#clip0_1392_4780)">
<path d="M161.93 87.1C163.16 35.82 155.53 -17.04 155.53 -17.04H161.26C161.26 -17.04 168.89 35.82 167.66 87.1H161.93Z" fill="#B7DE36"/>
<path d="M180.24 81.37C181.47 30.06 173.84 -22.85 173.84 -22.85L180.13 -28C180.13 -28 186.75 23.26 185.55 76.28L180.24 81.37Z" fill="#B7DE36"/>
<path d="M135.86 85.5C131 32.74 118.62 -17.45 118.62 -17.45L112.06 -16.2599C112.06 -16.2599 127.24 35.8101 132.06 83.4501L135.86 85.5Z" fill="#B7DE36"/>
<path d="M182.83 91.2C185.36 38.27 195.56 -12.37 195.56 -12.37L203.99 -12.11C203.99 -12.11 191.99 38.13 187.58 90.89L182.83 91.2Z" fill="#B7DE36"/>
<path d="M169.42 91.25C171.7 38.31 181.67 -12.37 181.67 -12.37L188.18 -11.9C188.18 -11.9 176.24 38.36 171.9 91.17L169.42 91.25Z" fill="#B7DE36"/>
<path d="M152.14 90.64C157.07 37.88 169.55 -12.26 169.55 -12.26L176.15 -11.75C176.15 -11.75 161.75 37.86 154.78 90.39L152.14 90.64Z" fill="#B7DE36"/>
<path d="M132.94 -11.9099C132.94 -11.9099 120.22 38.15 115.04 90.89L110.73 91.2101C113.87 38.3201 124.65 -12.2 124.65 -12.2L132.94 -11.9099Z" fill="#B7DE36"/>
<path d="M143.63 89.3199C145.92 36.3199 155.88 -14.3101 155.88 -14.3101L162.26 -14.2201C162.26 -14.2201 150.96 36.1799 147.26 89.0399L143.63 89.3199Z" fill="#B7DE36"/>
<path d="M124.16 87.74C131.57 23.47 143.31 -14.11 143.31 -14.11L149.56 -14.01C149.56 -14.01 134.67 35.45 127.2 87.92L124.16 87.74Z" fill="#B7DE36"/>
<path d="M143.36 88.9501C144.36 24.2701 137.61 -14.5099 137.61 -14.5099L131.79 -15.33C131.79 -15.33 138.55 35.88 137.47 88.86L143.36 88.9501Z" fill="#B7DE36"/>
</g>
<path d="M208.44 134.73C208.474 135.111 208.422 135.494 208.289 135.852C208.156 136.21 207.945 136.534 207.671 136.8C207.397 137.067 207.068 137.269 206.706 137.391C206.344 137.514 205.959 137.555 205.58 137.51H204.68V132.06H205.56C205.931 132.012 206.307 132.047 206.663 132.161C207.019 132.276 207.345 132.468 207.618 132.723C207.891 132.978 208.104 133.29 208.243 133.637C208.382 133.984 208.442 134.357 208.42 134.73M209.69 134.73C209.69 132.58 208.32 131.05 205.55 131.05H203.49V138.56H205.49C208.21 138.56 209.68 136.93 209.68 134.73M200.68 138.56V131.05H199.48V135.58C199.48 135.94 199.48 136.32 199.48 136.58C199.251 136.183 198.99 135.805 198.7 135.45L195.3 131H194.09V138.51H195.27V133.79C195.27 133.43 195.27 133.06 195.27 132.79C195.502 133.168 195.756 133.532 196.03 133.88L199.56 138.49L200.68 138.56ZM189.57 135.65H187.57L188.31 133.65C188.426 133.35 188.522 133.042 188.6 132.73C188.667 133.046 188.757 133.357 188.87 133.66L189.57 135.65ZM192 138.56L189 131.03H188.17L185.26 138.56H186.44L187.15 136.65H189.93L190.68 138.56H192ZM183.9 138.56V137.56H181.15V131.07H179.98V138.58L183.9 138.56ZM177.16 131.05H175.96V138.56H177.16V131.05ZM171.45 135.65H169.45L170.19 133.65C170.308 133.35 170.409 133.042 170.49 132.73V132.73C170.561 133.045 170.652 133.356 170.76 133.66L171.45 135.65ZM173.88 138.56L170.88 131.03H170.05L167.14 138.56H168.33L169.03 136.65H171.81L172.57 138.56H173.88ZM165.06 138.56V131.05H163.87V134.22H160.07V131.05H158.87V138.56H160.07V135.27H163.87V138.56H165.06ZM156.86 131.05H151.08V132.05H153.26V138.53H154.47V132.05H156.53L156.86 131.05ZM146.39 137.23L145.25 137.45C145.398 138.215 145.285 139.007 144.93 139.7L145.61 140.02C145.952 139.65 146.202 139.205 146.337 138.719C146.473 138.234 146.491 137.724 146.39 137.23ZM143.81 131.05H138.03V132.05H140.21V138.53H141.42V132.05H143.48L143.81 131.05ZM136.19 138.56V137.56H133.38V135.25H135.82V134.25H133.38V132.12H135.83L136.19 131.12H132.19V138.63L136.19 138.56ZM130.07 138.56L126.81 134.72L129.81 131.07H128.39L125.76 134.33V131.05H124.57V138.56H125.76V135.25L128.53 138.56H130.07ZM121.74 135.85V131.05H120.54V135.84C120.577 136.318 120.427 136.792 120.12 137.16C119.934 137.336 119.714 137.471 119.473 137.555C119.231 137.639 118.975 137.672 118.72 137.65C118.479 137.666 118.238 137.63 118.012 137.546C117.786 137.462 117.581 137.33 117.41 137.16C117.079 136.774 116.908 136.277 116.93 135.77V131.05H115.74V135.83C115.713 136.216 115.764 136.603 115.889 136.969C116.014 137.335 116.212 137.672 116.47 137.96C117.135 138.443 117.939 138.695 118.76 138.679C119.581 138.663 120.375 138.379 121.02 137.87C121.511 137.322 121.769 136.605 121.74 135.87M112.94 138.58V131.07H111.74V134.24H107.94V131.07H106.75V138.58H107.94V135.29H111.74V138.58H112.94ZM103.16 133.49C103.181 133.69 103.157 133.891 103.089 134.08C103.021 134.269 102.912 134.44 102.768 134.581C102.625 134.721 102.452 134.827 102.261 134.891C102.071 134.955 101.869 134.975 101.67 134.95H101.15V132.11H101.68C101.875 132.082 102.073 132.097 102.261 132.154C102.449 132.212 102.623 132.31 102.769 132.441C102.915 132.573 103.03 132.735 103.106 132.916C103.182 133.098 103.218 133.294 103.21 133.49M104.44 133.49C104.44 131.95 103.44 131.11 101.79 131.11H100V138.62H101.2V135.95H101.64C101.99 135.994 102.344 135.963 102.681 135.86C103.018 135.756 103.329 135.583 103.593 135.35C103.858 135.117 104.07 134.831 104.216 134.511C104.362 134.19 104.438 133.842 104.44 133.49Z" fill="#B7DE36"/>
<defs>
<clipPath id="clip0_1392_4780">
<rect x="118" width="76" height="76" rx="38" fill="white"/>
</clipPath>
</defs>
</svg>
